<svg xmlns="http://www.w3.org/2000/svg" viewBox="0 0 1333.34 639.83" shape-rendering="geometricPrecision" text-rendering="geometricPrecision" image-rendering="optimizeQuality" fill-rule="evenodd" clip-rule="evenodd"><path d="M682.91 0h393.94c3.93 0 5.44 3.61 7.15 7.15l27.88 57.91c1.7 3.54-3.22 7.15-7.15 7.15H585.67C554.75 72.21 607.56 0 682.9 0zm-433.4 478.97v39.21h39.21c-4.72-19.3-19.91-34.48-39.21-39.21zm39.21 64.75h-39.21v39.21c19.3-4.72 34.48-19.91 39.21-39.21zm-64.75 39.21v-39.21h-39.21c4.73 19.3 19.91 34.48 39.21 39.21zm-39.21-64.75h39.21v-39.21c-19.3 4.73-34.48 19.91-39.21 39.21zm804.79-39.21v39.21h39.21c-4.73-19.3-19.91-34.48-39.21-39.21zm39.21 64.75h-39.21v39.21c19.3-4.72 34.49-19.91 39.21-39.21zm-64.75 39.21v-39.21H924.8c4.72 19.3 19.91 34.48 39.21 39.21zm-39.21-64.75h39.21v-39.21c-19.3 4.73-34.48 19.91-39.21 39.21zm60.7-384.43h36.85c53.14 2.39 75.06.53 96.26 16.69 26.21 20 36.46 108.37 47.37 149.18.72 2.71-2.37 5.19-5.2 5.19H998.27c-2.82 0-4.97-2.35-5.19-5.19L980.3 138.95c-.22-2.85 2.33-5.2 5.19-5.2zm-293.48.86H571.57c-55 0-145.45 90.34-169.14 163.43-1.15 3.53 3.05 6.78 6.77 6.78h263.65c3.72 0 6.32-3.07 6.77-6.78l19.16-156.66c.45-3.7-3.1-6.77-6.77-6.77zm52.11-.62h194.05c2.87 0 5.02 2.39 5.21 5.21l11.18 160.41c.19 2.81-2.4 5.21-5.21 5.21H724.97c-2.82 0-5.55-2.36-5.21-5.21l19.16-160.41c.34-2.85 2.34-5.21 5.21-5.21zm-507.4 288.08c60.13 0 108.88 48.75 108.88 108.88 0 60.13-48.74 108.88-108.88 108.88-60.13 0-108.88-48.74-108.88-108.88 0-60.13 48.75-108.88 108.88-108.88zM18.93 427c5.55-2.48 11.63-3.64 18.22-3.51-.35-34.35 2.03-64.34 9.92-85.51 2.92-12.22 8.23-21.19 15.41-27.59 22.42-19.98 222.5-37.6 264.67-43.04 51.87-50.63 109.56-97.1 171-140.9 17.09-14.41 41.46-21.55 72.21-22.3l532.6-.39c36.71-.23 65.03 15.5 83.03 50.81l40.52 116.78 9.26-2.48v-45.5c-1.7-15.21 4.28-22.72 15.88-24.63h54.45c14.99.58 25.55 8.18 27.23 29.82v161.42c.12 16.67-5.99 27.56-21.39 29.82h-50.56c-5.01 1.1-3.44 5-3.89 10.37v55.11c-3.71 40.67-14.77 72.04-47.32 76.1h-98.54c2.1-47.69-6.9-86.8-28.74-115.97-79.48-106.13-251.94-42.94-240.29 116.37h-470c3.57-50.9-6.04-89.48-27.14-117.32-79.29-104.59-263.62-48.17-241.89 120.56H38.1c-39.43-.24-52.28-123.21-19.15-138zm957.84-4.93c60.13 0 108.88 48.75 108.88 108.88 0 60.13-48.75 108.88-108.88 108.88-60.13 0-108.88-48.74-108.88-108.88 0-60.13 48.74-108.88 108.88-108.88z"/></svg>